<!-- icon-144x144.svg - الأيقونة الرئيسية -->
<svg
    xmlns="http://www.w3.org/2000/svg"
    viewBox="0 0 144 144"
    width="144"
    height="144"
    fill="none"
>
    <!-- تعريف التدرجات -->
    <defs>
        <!-- تدرج الخلفية الرئيسي - أخضر إسلامي -->
        <linearGradient id="bgGradient" x1="0%" y1="0%" x2="100%" y2="100%">
            <stop offset="0%" style="stop-color:#059669" />
            <stop offset="50%" style="stop-color:#047857" />
            <stop offset="100%" style="stop-color:#065f46" />
        </linearGradient>

        <!-- تدرج ذهبي للعناصر المميزة -->
        <linearGradient id="goldGradient" x1="0%" y1="0%" x2="100%" y2="100%">
            <stop offset="0%" style="stop-color:#F59E0B" />
            <stop offset="50%" style="stop-color:#D97706" />
            <stop offset="100%" style="stop-color:#B45309" />
        </linearGradient>

        <!-- توهج ناعم -->
        <radialGradient id="glow" cx="50%" cy="50%" r="50%">
            <stop offset="0%" style="stop-color:#ffffff;stop-opacity:0.3" />
            <stop offset="100%" style="stop-color:#ffffff;stop-opacity:0" />
        </radialGradient>

        <!-- ظل داخلي -->
        <filter id="innerShadow" x="-20%" y="-20%" width="140%" height="140%">
            <feGaussianBlur in="SourceAlpha" stdDeviation="2" />
            <feOffset dx="0" dy="1" />
            <feComposite in2="SourceAlpha" operator="arithmetic" k2="-1" k3="1" />
            <feColorMatrix type="matrix" values="0 0 0 0 0   0 0 0 0 0   0 0 0 0 0  0 0 0 0.15 0" />
            <feBlend in2="SourceGraphic" mode="normal" />
        </filter>

        <!-- ظل خارجي -->
        <filter id="dropShadow" x="-20%" y="-20%" width="140%" height="140%">
            <feDropShadow dx="0" dy="2" stdDeviation="3" flood-color="#000000" flood-opacity="0.25" />
        </filter>
    </defs>

    <!-- خلفية دائرية -->
    <circle cx="72" cy="72" r="72" fill="url(#bgGradient)" />

    <!-- حدود ذهبية رفيعة -->
    <circle cx="72" cy="72" r="68" fill="none" stroke="url(#goldGradient)" stroke-width="2"
        opacity="0.8" />

    <!-- توهج داخلي -->
    <circle cx="72" cy="72" r="72" fill="url(#glow)" />

    <!-- أيادي متعانقة (رمز الرحمة والتكافل) -->
    <g transform="translate(72, 55)" filter="url(#dropShadow)">
        <!-- اليد اليمنى -->
        <path
            d="M-15,-10 C-25,-25 -35,-20 -35,-5 C-35,10 -20,25 -10,30 C-5,32 0,35 5,35 C10,35 15,30 15,25"
            fill="#FFFFFF"
            opacity="0.95"
            stroke="#F59E0B"
            stroke-width="0.5"
        />

        <!-- اليد اليسرى -->
        <path
            d="M15,-10 C25,-25 35,-20 35,-5 C35,10 20,25 10,30 C5,32 0,35 -5,35 C-10,35 -15,30 -15,25"
            fill="#FFFFFF"
            opacity="0.95"
            stroke="#F59E0B"
            stroke-width="0.5"
        />

        <!-- قلب في المنتصف -->
        <g transform="translate(0, 10)">
            <path
                d="M0,5 C-3,-2 -10,-5 -10,-10 C-10,-15 -5,-18 0,-15 C5,-18 10,-15 10,-10 C10,-5 3,-2 0,5Z"
                fill="url(#goldGradient)"
                opacity="0.9"
            />
        </g>
    </g>

    <!-- هلال (رمز إسلامي) -->
    <g transform="translate(72, 95)" opacity="0.15">
        <path
            d="M-20,-15 C-15,-25 0,-30 10,-25 C5,-20 -5,-15 -5,-5 C-5,5 5,15 10,20 C0,15 -15,10 -20,0 C-22,-5 -22,-10 -20,-15Z"
            fill="#FFFFFF"
        />
        <circle cx="15" cy="-20" r="2" fill="#FFFFFF" opacity="0.5" />
        <circle cx="18" cy="-15" r="1.5" fill="#FFFFFF" opacity="0.3" />
        <circle cx="20" cy="-10" r="1" fill="#FFFFFF" opacity="0.2" />
    </g>

    <!-- تأثير Maskable (للأيقونات القابلة للتكيف) -->
    <circle cx="72" cy="72" r="58" fill="none" stroke="#FFFFFF" stroke-width="1" opacity="0.1" />
</svg>