<svg xmlns="http://www.w3.org/2000/svg" viewBox="0 0 48 48" width="48" height="48">
    <defs>
        <linearGradient id="bg" x1="0%" y1="0%" x2="100%" y2="100%">
            <stop offset="0%" style="stop-color:#059669" />
            <stop offset="100%" style="stop-color:#047857" />
        </linearGradient>
    </defs>
    <circle cx="24" cy="24" r="24" fill="url(#bg)" />
    <g transform="translate(24, 18) scale(0.5)">
        <path
            d="M-10,-8 C-18,-20 -28,-16 -28,-4 C-28,8 -16,20 -8,24 C-4,26 0,28 4,28 C8,28 12,24 12,20"
            fill="#FFFFFF" />
        <path d="M10,-8 C18,-20 28,-16 28,-4 C28,8 16,20 8,24 C4,26 0,28 -4,28 C-8,28 -12,24 -12,20"
            fill="#FFFFFF" />
        <path d="M0,8 C-2,-1 -7,-4 -7,-8 C-7,-12 -3,-14 0,-12 C3,-14 7,-12 7,-8 C7,-4 2,-1 0,8Z"
            fill="#F59E0B" />
    </g>
</svg>